<?xml version="1.0" encoding="UTF-8" standalone="no"?>
<!-- Created with Inkscape (http://www.inkscape.org/) -->

<svg
   width="510.70474mm"
   height="510.70474mm"
   viewBox="0 0 510.70474 510.70474"
   version="1.1"
   id="svg1"
   xml:space="preserve"
   xmlns="http://www.w3.org/2000/svg"
   xmlns:svg="http://www.w3.org/2000/svg"><defs
     id="defs1" /><g
     id="layer4"
     transform="translate(-1612.955,-533.87787)"><g
       id="g2"
       transform="translate(-95.789396,-185.59195)"><path
         id="rect46-2-0-6-1"
         style="fill:#afa2b9;fill-opacity:1;stroke:none;stroke-width:1.10965;stroke-linecap:round;stroke-dasharray:none;stroke-opacity:1"
         d="m 1708.7443,719.46978 v 255.35237 255.35235 h 255.3524 255.3523 V 974.82215 719.46978 h -255.3523 z" /><g
         id="g1"
         transform="translate(-2.9046656,-3.4313176)"
         style="stroke:#f9f9fc;stroke-opacity:1"><path
           id="path6-5-1-9-2-12"
           style="fill:none;fill-opacity:1;stroke:#f9f9fc;stroke-width:2.59463;stroke-linecap:round;stroke-dasharray:none;stroke-opacity:1"
           d="m 1776.893,836.8303 c 8.3215,5.37699 37.0533,27.6938 32.1873,34.09229 m -49.3294,-41.30822 c 9.5622,15.2039 10.6749,60.58845 30.8169,59.82627 l 23.3193,-14.66624 c 9.3027,-17.61968 -35.0199,-40.86502 -42.2769,-52.40367 -3.2376,2.03621 -10.1774,6.18582 -11.8593,7.24364 z m 0,0 c 1.8868,-1.18669 8.656,-5.22899 11.8593,-7.24364 -1.471,-2.32763 -5.0314,-7.90295 -6.1278,-9.64632 -4.9231,2.53007 -9.6764,5.37926 -11.8769,7.06723 2.0664,3.28559 3.7196,5.96576 6.1454,9.82272 z m 5.2381,-29.11305 c 3.8109,-2.55355 7.3493,-4.33277 7.8838,-4.40803 0.5346,-0.0752 2.3775,2.17299 2.8725,2.78474 0.4949,0.61176 -2.2811,2.9651 -3.3367,3.98595 -1.3101,-0.74415 -7.2859,-2.38147 -7.4196,-2.36266 z m -25.4591,24.76366 c -5.1489,-4.69462 9.8474,-10.1888 11.6503,-14.87337 0.5295,-3.79422 7.9637,-7.32164 13.6403,-9.88856 5.2977,0.99888 15.9069,6.86713 26.2721,10.51586 1.6622,0.66764 1.7742,5.80829 -2.3956,5.44913 -6.6808,-3.69485 -15.2293,-7.91496 -20.3996,-4.98984 -14.6527,5.96471 -25.2745,18.64683 -28.7675,13.78678 z" /><g
           id="g10-5-1-8-2-6"
           transform="matrix(1.6841962,-0.45127902,0.45127902,1.6841962,1658.3029,842.91228)"
           style="stroke:#f9f9fc;stroke-opacity:1"><path
             id="path8-4-4-2-1-9-5-3-8"
             style="fill:none;fill-opacity:1;stroke:#f9f9fc;stroke-width:1.2;stroke-linecap:round;stroke-dasharray:none;stroke-opacity:1"
             d="m 113.33463,24.805853 h 3.73225 m -3.73225,3.705332 h 3.73225 m -3.73225,3.705332 h 3.73225 m -3.73225,-11.115996 h 3.73225 m -24.133762,3.705332 h 3.73225 m -3.73225,3.705332 h 3.73225 m -3.73225,3.705332 h 3.73225 m -3.73225,-11.115996 h 3.73225 m 0.529166,-2.856344 H 112.80546 V 35.087753 H 97.194534 Z m 7.805726,24.647955 A 7.8121578,7.8039772 0 0 1 97.187701,35.087753 H 112.8123 a 7.8121578,7.8039772 0 0 1 -7.81204,7.804379 z m 0,-32.452335 a 7.8121578,7.8039772 0 0 0 -7.812559,7.80438 H 112.8123 a 7.8121578,7.8039772 0 0 0 -7.81204,-7.80438 z m -2.8181,31.927043 c 2.02879,0.752409 3.78126,0.641863 5.63568,0 0,4.623561 0,30.03405 0,30.03405 -1.79507,2.634699 -3.67362,2.634699 -5.63568,0 0,0 0,-24.314602 0,-30.03405 z" /><path
             id="path9-0-0-2-1-5-1-7-8"
             style="fill:#afa2b9;fill-opacity:1;stroke:#f9f9fc;stroke-linecap:round;stroke-opacity:1"
             d="m 111.33438,32.316517 a 0.69999999,0.69999999 0 0 1 -0.7,0.7 0.69999999,0.69999999 0 0 1 -0.7,-0.7 0.69999999,0.69999999 0 0 1 0.7,-0.7 0.69999999,0.69999999 0 0 1 0.7,0.7 z m -5.41375,0 a 0.69999999,0.69999999 0 0 1 -0.7,0.7 0.69999999,0.69999999 0 0 1 -0.7,-0.7 0.69999999,0.69999999 0 0 1 0.7,-0.7 0.69999999,0.69999999 0 0 1 0.7,0.7 z m -5.41375,0 a 0.69999999,0.69999999 0 0 1 -0.700003,0.7 0.69999999,0.69999999 0 0 1 -0.7,-0.7 0.69999999,0.69999999 0 0 1 0.7,-0.7 0.69999999,0.69999999 0 0 1 0.700003,0.7 z m 10.8275,-3.705332 a 0.69999999,0.69999999 0 0 1 -0.7,0.7 0.69999999,0.69999999 0 0 1 -0.7,-0.7 0.69999999,0.69999999 0 0 1 0.7,-0.7 0.69999999,0.69999999 0 0 1 0.7,0.7 z m -5.41375,0 a 0.69999999,0.69999999 0 0 1 -0.7,0.7 0.69999999,0.69999999 0 0 1 -0.7,-0.7 0.69999999,0.69999999 0 0 1 0.7,-0.7 0.69999999,0.69999999 0 0 1 0.7,0.7 z m 2.70687,1.81901 a 0.69999999,0.69999999 0 0 1 -0.7,0.7 0.69999999,0.69999999 0 0 1 -0.7,-0.7 0.69999999,0.69999999 0 0 1 0.7,-0.7 0.69999999,0.69999999 0 0 1 0.7,0.7 z m -5.41374,0 a 0.69999999,0.69999999 0 0 1 -0.7,0.7 0.69999999,0.69999999 0 0 1 -0.7,-0.7 0.69999999,0.69999999 0 0 1 0.7,-0.7 0.69999999,0.69999999 0 0 1 0.7,0.7 z m -2.70688,-1.81901 a 0.69999999,0.69999999 0 0 1 -0.700003,0.7 0.69999999,0.69999999 0 0 1 -0.7,-0.7 0.69999999,0.69999999 0 0 1 0.7,-0.7 0.69999999,0.69999999 0 0 1 0.700003,0.7 z m 10.8275,-3.705332 a 0.69999999,0.69999999 0 0 1 -0.7,0.7 0.69999999,0.69999999 0 0 1 -0.7,-0.7 0.69999999,0.69999999 0 0 1 0.7,-0.7 0.69999999,0.69999999 0 0 1 0.7,0.7 z m -5.41375,0 a 0.69999999,0.69999999 0 0 1 -0.7,0.7 0.69999999,0.69999999 0 0 1 -0.7,-0.7 0.69999999,0.69999999 0 0 1 0.7,-0.7 0.69999999,0.69999999 0 0 1 0.7,0.7 z m 2.70687,1.81901 a 0.69999999,0.69999999 0 0 1 -0.7,0.7 0.69999999,0.69999999 0 0 1 -0.7,-0.7 0.69999999,0.69999999 0 0 1 0.7,-0.7 0.69999999,0.69999999 0 0 1 0.7,0.7 z m -5.41374,0 a 0.69999999,0.69999999 0 0 1 -0.7,0.7 0.69999999,0.69999999 0 0 1 -0.7,-0.7 0.69999999,0.69999999 0 0 1 0.7,-0.7 0.69999999,0.69999999 0 0 1 0.7,0.7 z m -2.70688,-1.81901 a 0.69999999,0.69999999 0 0 1 -0.700003,0.7 0.69999999,0.69999999 0 0 1 -0.7,-0.7 0.69999999,0.69999999 0 0 1 0.7,-0.7 0.69999999,0.69999999 0 0 1 0.700003,0.7 z m 10.8275,-3.705332 a 0.69999999,0.69999999 0 0 1 -0.7,0.7 0.69999999,0.69999999 0 0 1 -0.7,-0.7 0.69999999,0.69999999 0 0 1 0.7,-0.7 0.69999999,0.69999999 0 0 1 0.7,0.7 z m -5.41375,0 a 0.69999999,0.69999999 0 0 1 -0.7,0.7 0.69999999,0.69999999 0 0 1 -0.7,-0.7 0.69999999,0.69999999 0 0 1 0.7,-0.7 0.69999999,0.69999999 0 0 1 0.7,0.7 z m 2.70687,1.81901 a 0.69999999,0.69999999 0 0 1 -0.7,0.7 0.69999999,0.69999999 0 0 1 -0.7,-0.7 0.69999999,0.69999999 0 0 1 0.7,-0.7 0.69999999,0.69999999 0 0 1 0.7,0.7 z m -5.41374,0 a 0.69999999,0.69999999 0 0 1 -0.7,0.7 0.69999999,0.69999999 0 0 1 -0.7,-0.7 0.69999999,0.69999999 0 0 1 0.7,-0.7 0.69999999,0.69999999 0 0 1 0.7,0.7 z m -2.70688,-1.81901 a 0.69999999,0.69999999 0 0 1 -0.700003,0.7 0.69999999,0.69999999 0 0 1 -0.7,-0.7 0.69999999,0.69999999 0 0 1 0.7,-0.7 0.69999999,0.69999999 0 0 1 0.700003,0.7 z" /></g><path
           id="rect11-3-6-4-4-2"
           style="fill:none;fill-opacity:1;stroke:#f9f9fc;stroke-width:1.98288;stroke-linecap:round;stroke-dasharray:none;stroke-opacity:1"
           d="m 1733.1128,932.80853 c 1.9669,-8.86626 5.0111,-16.15163 7.7827,-20.58684 0.2024,-0.2448 3.276,-4.60488 5.1949,-4.52572 25.7103,1.06116 97.5116,35.00762 111.3577,45.42735 1.3219,1.63671 1.0642,4.59343 -2.0332,4.85469 -8.5644,-3.65881 -52.8908,-27.46843 -56.9649,-17.93201 l -7.4696,17.48454 c -0.5048,1.1816 -3.099,0.0734 -2.5942,-1.10828 l 7.2232,-16.90762 c 0.3454,-2.60398 -1.0376,-3.21931 -2.6949,-1.1513 l -7.2232,16.90763 c -0.5047,1.18147 -3.3717,-0.0433 -2.8669,-1.22478 l 7.6028,-17.79616 c 0.3912,-2.71123 -0.9915,-3.32755 -2.695,-1.15133 l -7.6028,17.79614 c -0.5048,1.18161 -3.3705,-0.0427 -2.8657,-1.22426 l 8.0948,-18.94774 c 0.4506,-2.85035 -0.9327,-3.46842 -2.6962,-1.15182 l -8.0947,18.94773 c -0.5048,1.18159 -3.3706,-0.0427 -2.8658,-1.22431 l 8.306,-19.44222 c 0.4761,-2.91002 -0.9069,-3.52865 -2.6961,-1.15183 l -8.306,19.44223 c -0.5048,1.18162 -3.3706,-0.0427 -2.8658,-1.22429 l 8.6808,-20.3194 c 0.5214,-3.01597 -0.86,-3.63498 -2.6949,-1.15131 l -8.6808,20.31941 c -0.5048,1.1816 -3.3718,-0.0432 -2.867,-1.22482 l 8.6807,-20.31942 c 0.5215,-3.01595 -0.8599,-3.63498 -2.6949,-1.1513 l -8.6807,20.31942 c -0.5048,1.1816 -3.3717,-0.0432 -2.867,-1.22481 l 8.3061,-19.44222 c 0.4761,-2.91 -0.9057,-3.52813 -2.695,-1.1513 l -8.306,19.44223 c -0.5048,1.1816 -3.3717,-0.0432 -2.867,-1.22483 l 8.0948,-18.94773 c 0.4506,-2.85035 -0.9314,-3.46788 -2.6949,-1.15132 l -8.0948,18.94774 c -0.5048,1.18162 -3.3705,-0.0427 -2.8657,-1.22426 l 7.6027,-17.79618 c 0.3913,-2.71123 -0.9925,-3.32802 -2.6961,-1.15184 l -7.6028,17.79615 c -0.5048,1.18162 -3.3705,-0.0426 -2.8657,-1.22426 l 7.2232,-16.90762 c 0.3455,-2.60402 -1.0375,-3.21935 -2.6949,-1.15131 l -7.2232,16.90763 c -0.5048,1.18162 -2.6831,0.25102 -2.5229,-1.07783 z" /><path
           id="path17-3-3-7-8-7"
           style="fill:none;fill-opacity:1;stroke:#f9f9fc;stroke-width:2.14883;stroke-linecap:round;stroke-dasharray:none;stroke-opacity:1"
           d="m 1732.6362,786.66354 c -2.7169,1.76399 -5.0546,3.72155 -4.8245,6.98983 m 20.9614,-21.32078 c 10.7826,-2.52184 30.0223,-19.80304 68.3591,-32.29197 2.6267,-0.62724 2.1022,0.80695 1.0266,1.53355 -34.3083,16.93565 -65.6302,32.27736 -66.5762,34.99404 -0.9437,-1.67727 -1.829,-2.23422 -2.8095,-4.23562 z m 2.6476,8.8751 a 10.029953,10.029953 0 0 0 -10.03,-10.02996 10.029953,10.029953 0 0 0 -10.0299,10.02996 10.029953,10.029953 0 0 0 10.0299,10.02995 10.029953,10.029953 0 0 0 10.03,-10.02995 z m -0.3411,-25.68231 a 10.029953,10.029953 0 0 1 -12.2841,7.09224 10.029953,10.029953 0 0 1 -7.0923,-12.28413 10.029953,10.029953 0 0 1 12.2842,-7.09226 10.029953,10.029953 0 0 1 7.0922,12.28415 z m -0.2114,3.05849 c 11.0689,-0.32043 34.0892,11.46394 74.3452,13.73016 2.6997,-0.0655 1.8258,-1.31788 0.6001,-1.74515 -37.499,-7.59554 -71.7034,-14.41413 -73.313,-16.79838 -0.4831,1.86286 -1.1965,2.62773 -1.6323,4.81337 z" /><path
           id="path21-3-6-1-3-9"
           style="fill:none;fill-opacity:1;stroke:#f9f9fc;stroke-width:2.05564;stroke-linecap:round;stroke-dasharray:none;stroke-opacity:1"
           d="m 1941.1582,801.81749 c 6.0958,-1.34562 16.9166,4.81556 15.1669,10.40119 -1.7497,5.58561 -14.3999,1.49652 -21.0279,9.57738 -6.628,8.08088 -2.1241,13.09034 1.8486,12.87191 m -0.3605,-38.04886 c 1.9377,0.079 4.8281,1.7813 5.1737,2.49756 0.447,1.33052 -2.2408,5.24192 -3.0189,5.22881 -1.0882,0.20745 -2.8761,-1.28092 -4.9903,-2.21183 1.0272,-1.36086 2.0026,-2.9706 2.8355,-5.51454 z M 1870.136,744.1613 c 7.064,7.06396 11.6745,17.50833 11.6745,17.50833 l -6.2976,10.90776 c 0,0 -11.2028,-0.36448 -21.4432,-3.1084 -1.7163,-0.88879 14.2972,-27.17463 16.0663,-25.30769 z m 11.6745,17.50833 c 26.8918,-0.51913 48.7599,15.4371 55.7878,32.2091 -1.4867,5.54842 -2.7539,7.71599 -6.7783,11.74043 -21.5465,2.60604 -46.5215,-18.54918 -55.3071,-33.04177 2.3837,-4.12874 4.5857,-7.94271 6.2976,-10.90776 z m 16.8177,34.27556 c 3.3848,2.29536 8.6466,4.7396 13.4092,6.82449 -12.0529,13.45145 -19.2153,21.74793 -27.153,30.58645 -1.5744,1.66317 -7.7139,-1.19855 -9.1348,-5.24338 -0.6265,-1.75837 12.8147,-25.28513 19.3407,-34.70781 z" /><path
           id="path11-5-1-3-5-1-5-3-7"
           style="fill:none;fill-opacity:1;stroke:#f9f9fc;stroke-width:1.80087;stroke-linecap:round;stroke-dasharray:none;stroke-opacity:1"
           d="m 1929.6537,876.21704 -7.986,12.67067 m 12.4452,-9.8306 -7.9859,12.67067 m -0.9325,-18.35075 -7.986,12.67067 m 25.8229,-1.31045 -7.9859,12.67067 m 3.5267,-15.5107 -7.9859,12.67068 m 16.9044,-6.99055 -7.9859,12.67067 m -18.7694,-29.71096 -7.986,12.67068 m -3.8239,2.55168 30.1116,18.97458 m -20.0763,-35.89656 c -3.2192,-1.8586 -14.5253,19.28286 -11.2732,33.94347 2.1601,9.73833 -17.8804,41.04044 -29.1986,58.81144 -1.0581,1.65414 -0.1542,2.92051 0.4595,3.31135 0.2457,0.16109 0.8051,0.51279 1.0585,0.67416 0.6137,0.39085 2.1442,0.675 3.195,-0.98383 11.3182,-17.771 31.2094,-49.16825 40.9476,-51.32855 14.6607,-3.25212 28.259,-23.26024 25.9937,-24.56814 -7.3437,-4.06737 -22.4309,-14.80716 -31.1825,-19.8599 z" /><path
           id="path6-5-1-9-2-12-6"
           style="fill:none;fill-opacity:1;stroke:#f9f9fc;stroke-width:2.59463;stroke-linecap:round;stroke-dasharray:none;stroke-opacity:1"
           d="m 2096.3919,842.18708 c -1.397,9.80855 -9.6273,45.24599 -17.4757,43.50748 m 16.8481,-62.09585 c -9.8008,15.05126 -50.5462,35.07133 -41.4174,53.04205 l 23.0851,15.03207 c 19.8961,1.06709 22.4392,-48.91653 29.8772,-60.33941 -3.2051,-2.08693 -9.8799,-6.65062 -11.5449,-7.73471 z m 0,0 c 1.8678,1.21626 8.3738,5.66989 11.5449,7.7348 1.4975,-2.31069 5.0689,-7.87898 6.1927,-9.6048 -4.3595,-3.41068 -8.9377,-6.53352 -11.3921,-7.82467 -2.118,3.2526 -3.8593,5.8764 -6.3455,9.69467 z m 28.6301,-7.43777 c 3.915,2.39092 7.0127,4.85873 7.3049,5.31256 0.2923,0.45394 -0.9773,3.06906 -1.3255,3.77479 -0.3482,0.70563 -3.6479,-0.8294 -5.017,-1.36035 0.127,-1.50133 -0.8893,-7.61347 -0.9624,-7.727 z m -33.1504,-12.74572 c 2.1063,-6.64184 13.3766,4.67429 18.3856,4.34925 3.6671,-1.10843 9.9841,4.16472 14.6927,8.24419 1.3119,5.22897 0.427,17.32064 1.4553,28.26107 0.09,1.78901 -4.5311,4.04392 -5.9515,0.107 0.5568,-7.61413 0.8083,-17.14415 -4.0135,-20.61384 -11.5537,-10.80713 -27.5187,-15.14017 -24.5686,-20.34767 z" /><g
           id="g10-5-1-8-2-6-0"
           transform="matrix(1.6841962,-0.45127902,0.45127902,1.6841962,1820.8177,776.75836)"
           style="stroke:#f9f9fc;stroke-opacity:1"><path
             id="path8-4-4-2-1-9-5-3-8-9"
             style="fill:none;fill-opacity:1;stroke:#f9f9fc;stroke-width:1.2;stroke-linecap:round;stroke-dasharray:none;stroke-opacity:1"
             d="m 113.33463,24.805853 h 3.73225 m -3.73225,3.705332 h 3.73225 m -3.73225,3.705332 h 3.73225 m -3.73225,-11.115996 h 3.73225 m -24.133762,3.705332 h 3.73225 m -3.73225,3.705332 h 3.73225 m -3.73225,3.705332 h 3.73225 m -3.73225,-11.115996 h 3.73225 m 0.529166,-2.856344 H 112.80546 V 35.087753 H 97.194534 Z m 7.805726,24.647955 A 7.8121578,7.8039772 0 0 1 97.187701,35.087753 H 112.8123 a 7.8121578,7.8039772 0 0 1 -7.81204,7.804379 z m 0,-32.452335 a 7.8121578,7.8039772 0 0 0 -7.812559,7.80438 H 112.8123 a 7.8121578,7.8039772 0 0 0 -7.81204,-7.80438 z m -2.8181,31.927043 c 2.02879,0.752409 3.78126,0.641863 5.63568,0 0,4.623561 0,30.03405 0,30.03405 -1.79507,2.634699 -3.67362,2.634699 -5.63568,0 0,0 0,-24.314602 0,-30.03405 z" /><path
             id="path9-0-0-2-1-5-1-7-8-5"
             style="fill:#afa2b9;fill-opacity:1;stroke:#f9f9fc;stroke-linecap:round;stroke-opacity:1"
             d="m 111.33438,32.316517 a 0.69999999,0.69999999 0 0 1 -0.7,0.7 0.69999999,0.69999999 0 0 1 -0.7,-0.7 0.69999999,0.69999999 0 0 1 0.7,-0.7 0.69999999,0.69999999 0 0 1 0.7,0.7 z m -5.41375,0 a 0.69999999,0.69999999 0 0 1 -0.7,0.7 0.69999999,0.69999999 0 0 1 -0.7,-0.7 0.69999999,0.69999999 0 0 1 0.7,-0.7 0.69999999,0.69999999 0 0 1 0.7,0.7 z m -5.41375,0 a 0.69999999,0.69999999 0 0 1 -0.700003,0.7 0.69999999,0.69999999 0 0 1 -0.7,-0.7 0.69999999,0.69999999 0 0 1 0.7,-0.7 0.69999999,0.69999999 0 0 1 0.700003,0.7 z m 10.8275,-3.705332 a 0.69999999,0.69999999 0 0 1 -0.7,0.7 0.69999999,0.69999999 0 0 1 -0.7,-0.7 0.69999999,0.69999999 0 0 1 0.7,-0.7 0.69999999,0.69999999 0 0 1 0.7,0.7 z m -5.41375,0 a 0.69999999,0.69999999 0 0 1 -0.7,0.7 0.69999999,0.69999999 0 0 1 -0.7,-0.7 0.69999999,0.69999999 0 0 1 0.7,-0.7 0.69999999,0.69999999 0 0 1 0.7,0.7 z m 2.70687,1.81901 a 0.69999999,0.69999999 0 0 1 -0.7,0.7 0.69999999,0.69999999 0 0 1 -0.7,-0.7 0.69999999,0.69999999 0 0 1 0.7,-0.7 0.69999999,0.69999999 0 0 1 0.7,0.7 z m -5.41374,0 a 0.69999999,0.69999999 0 0 1 -0.7,0.7 0.69999999,0.69999999 0 0 1 -0.7,-0.7 0.69999999,0.69999999 0 0 1 0.7,-0.7 0.69999999,0.69999999 0 0 1 0.7,0.7 z m -2.70688,-1.81901 a 0.69999999,0.69999999 0 0 1 -0.700003,0.7 0.69999999,0.69999999 0 0 1 -0.7,-0.7 0.69999999,0.69999999 0 0 1 0.7,-0.7 0.69999999,0.69999999 0 0 1 0.700003,0.7 z m 10.8275,-3.705332 a 0.69999999,0.69999999 0 0 1 -0.7,0.7 0.69999999,0.69999999 0 0 1 -0.7,-0.7 0.69999999,0.69999999 0 0 1 0.7,-0.7 0.69999999,0.69999999 0 0 1 0.7,0.7 z m -5.41375,0 a 0.69999999,0.69999999 0 0 1 -0.7,0.7 0.69999999,0.69999999 0 0 1 -0.7,-0.7 0.69999999,0.69999999 0 0 1 0.7,-0.7 0.69999999,0.69999999 0 0 1 0.7,0.7 z m 2.70687,1.81901 a 0.69999999,0.69999999 0 0 1 -0.7,0.7 0.69999999,0.69999999 0 0 1 -0.7,-0.7 0.69999999,0.69999999 0 0 1 0.7,-0.7 0.69999999,0.69999999 0 0 1 0.7,0.7 z m -5.41374,0 a 0.69999999,0.69999999 0 0 1 -0.7,0.7 0.69999999,0.69999999 0 0 1 -0.7,-0.7 0.69999999,0.69999999 0 0 1 0.7,-0.7 0.69999999,0.69999999 0 0 1 0.7,0.7 z m -2.70688,-1.81901 a 0.69999999,0.69999999 0 0 1 -0.700003,0.7 0.69999999,0.69999999 0 0 1 -0.7,-0.7 0.69999999,0.69999999 0 0 1 0.7,-0.7 0.69999999,0.69999999 0 0 1 0.700003,0.7 z m 10.8275,-3.705332 a 0.69999999,0.69999999 0 0 1 -0.7,0.7 0.69999999,0.69999999 0 0 1 -0.7,-0.7 0.69999999,0.69999999 0 0 1 0.7,-0.7 0.69999999,0.69999999 0 0 1 0.7,0.7 z m -5.41375,0 a 0.69999999,0.69999999 0 0 1 -0.7,0.7 0.69999999,0.69999999 0 0 1 -0.7,-0.7 0.69999999,0.69999999 0 0 1 0.7,-0.7 0.69999999,0.69999999 0 0 1 0.7,0.7 z m 2.70687,1.81901 a 0.69999999,0.69999999 0 0 1 -0.7,0.7 0.69999999,0.69999999 0 0 1 -0.7,-0.7 0.69999999,0.69999999 0 0 1 0.7,-0.7 0.69999999,0.69999999 0 0 1 0.7,0.7 z m -5.41374,0 a 0.69999999,0.69999999 0 0 1 -0.7,0.7 0.69999999,0.69999999 0 0 1 -0.7,-0.7 0.69999999,0.69999999 0 0 1 0.7,-0.7 0.69999999,0.69999999 0 0 1 0.7,0.7 z m -2.70688,-1.81901 a 0.69999999,0.69999999 0 0 1 -0.700003,0.7 0.69999999,0.69999999 0 0 1 -0.7,-0.7 0.69999999,0.69999999 0 0 1 0.7,-0.7 0.69999999,0.69999999 0 0 1 0.700003,0.7 z" /></g><path
           id="rect11-3-6-4-4-2-8"
           style="fill:none;fill-opacity:1;stroke:#f9f9fc;stroke-width:1.98288;stroke-linecap:round;stroke-dasharray:none;stroke-opacity:1"
           d="m 2078.9477,765.34209 c 1.9669,-8.8662 5.0111,-16.1516 7.7827,-20.5868 0.2024,-0.2448 3.276,-4.6049 5.1949,-4.5257 25.7103,1.0611 97.5116,35.0076 111.3576,45.4273 1.3219,1.6367 1.0643,4.5935 -2.0331,4.8547 -8.5645,-3.6588 -52.8908,-27.4684 -56.9649,-17.932 l -7.4696,17.4845 c -0.5048,1.1816 -3.099,0.073 -2.5942,-1.1082 l 7.2232,-16.9077 c 0.3454,-2.6039 -1.0376,-3.2193 -2.6949,-1.1513 l -7.2232,16.9077 c -0.5047,1.1814 -3.3717,-0.043 -2.8669,-1.2248 l 7.6028,-17.7962 c 0.3912,-2.7112 -0.9915,-3.3275 -2.695,-1.1513 l -7.6028,17.7961 c -0.5048,1.1817 -3.3705,-0.043 -2.8657,-1.2242 l 8.0948,-18.9478 c 0.4506,-2.8503 -0.9327,-3.4684 -2.6962,-1.1518 l -8.0947,18.9478 c -0.5048,1.1815 -3.3706,-0.043 -2.8658,-1.2244 l 8.306,-19.4422 c 0.4761,-2.91 -0.9069,-3.5286 -2.6961,-1.1518 l -8.306,19.4422 c -0.5048,1.1816 -3.3706,-0.043 -2.8658,-1.2243 l 8.6808,-20.3194 c 0.5214,-3.0159 -0.86,-3.6349 -2.6949,-1.1513 l -8.6808,20.3194 c -0.5048,1.1816 -3.3718,-0.043 -2.867,-1.2248 l 8.6807,-20.3194 c 0.5215,-3.016 -0.8599,-3.635 -2.6949,-1.1513 l -8.6807,20.3194 c -0.5048,1.1816 -3.3717,-0.043 -2.867,-1.2248 l 8.3061,-19.4422 c 0.4761,-2.91 -0.9057,-3.5281 -2.695,-1.1513 l -8.306,19.4422 c -0.5048,1.1816 -3.3717,-0.043 -2.867,-1.2248 l 8.0948,-18.9477 c 0.4506,-2.8504 -0.9314,-3.4679 -2.6949,-1.1514 l -8.0948,18.9478 c -0.5048,1.1816 -3.3705,-0.043 -2.8657,-1.2243 l 7.6027,-17.7962 c 0.3913,-2.7112 -0.9925,-3.328 -2.6961,-1.1518 l -7.6028,17.7961 c -0.5048,1.1817 -3.3705,-0.043 -2.8657,-1.2242 l 7.2232,-16.9076 c 0.3455,-2.6041 -1.0375,-3.2194 -2.6949,-1.1513 l -7.2232,16.9076 c -0.5048,1.1816 -2.6831,0.251 -2.5229,-1.0778 z" /><path
           id="path17-3-3-7-8-7-9"
           style="fill:none;fill-opacity:1;stroke:#f9f9fc;stroke-width:2.14883;stroke-linecap:round;stroke-dasharray:none;stroke-opacity:1"
           d="m 2185.3651,956.99498 c 2.0177,2.53411 3.6145,5.13164 2.3605,8.15852 m -13.1236,-26.86489 c -9.4276,-5.80914 -22.1987,-28.2971 -54.601,-52.29215 -2.2926,-1.42741 -2.2496,0.0991 -1.4597,1.12914 27.1723,26.93583 52.0174,51.41343 52.0536,54.28987 1.4266,-1.29172 2.4428,-1.53938 4.0071,-3.12686 z m -5.324,7.57846 a 10.029953,10.029953 0 0 1 12.6917,-6.33414 10.029953,10.029953 0 0 1 6.3341,12.69166 10.029953,10.029953 0 0 1 -12.6916,6.33416 10.029953,10.029953 0 0 1 -6.3342,-12.69168 z m 8.463,-24.25025 a 10.029953,10.029953 0 0 0 9.4032,10.61979 10.029953,10.029953 0 0 0 10.6198,-9.40314 10.029953,10.029953 0 0 0 -9.4032,-10.61985 10.029953,10.029953 0 0 0 -10.6198,9.4032 z m -0.7688,2.96782 c -10.3967,-3.81194 -35.9651,0.0692 -74.8642,-10.53961 -2.5398,-0.91776 -1.3141,-1.82862 -0.016,-1.84541 37.9731,4.68045 72.5754,9.05368 74.8576,7.30246 -0.1323,1.9199 0.3021,2.87147 0.023,5.08256 z" /><path
           id="path21-3-6-1-3-9-0"
           style="fill:none;fill-opacity:1;stroke:#f9f9fc;stroke-width:2.05564;stroke-linecap:round;stroke-dasharray:none;stroke-opacity:1"
           d="m 1996.6792,900.37263 c -3.3521,-5.26615 -15.3559,-8.57634 -18.075,-3.39297 -2.719,5.18336 9.1097,11.25215 8.0691,21.65153 -1.0407,10.39948 -7.7681,10.74835 -10.419,7.78137 m 27.1937,-26.61489 c -1.4244,-1.3162 -4.6709,-2.16045 -5.422,-1.89931 -1.2578,0.62312 -2.1289,5.2884 -1.5701,5.83004 0.6216,0.91699 2.9379,1.13169 5.0901,1.97119 0.2381,-1.68834 0.689,-3.51574 1.902,-5.90192 z m 84.2085,10.14265 c -9.99,-0.0128 -20.6406,4.09877 -20.6406,4.09877 l -3.2755,12.1618 c 0,0 8.1695,7.67428 17.344,12.98681 1.8413,0.58752 9.1432,-29.31334 6.5721,-29.24738 z m -20.6406,4.09877 c -18.6236,-19.40642 -45.364,-23.62087 -62.2018,-16.75226 -2.8785,4.97083 -3.5183,7.39876 -3.5256,13.09015 13.371,17.09552 45.9866,19.83827 62.4519,15.82391 1.2398,-4.60343 2.385,-8.85594 3.2755,-12.1618 z m -36.1442,12.29827 c -4.0155,-0.77554 -9.462,-2.77483 -14.3015,-4.67444 -1.0119,18.03304 -1.8278,28.96311 -2.48,40.82487 -0.066,2.28918 6.2962,4.61511 10.1634,2.76461 1.6874,-0.79814 8.8523,-26.92936 10.9151,-38.20411 z" /><path
           id="path11-5-1-3-5-1-5-3-7-0"
           style="fill:none;fill-opacity:1;stroke:#f9f9fc;stroke-width:1.80087;stroke-linecap:round;stroke-dasharray:none;stroke-opacity:1"
           d="m 2185.6407,893.47545 -7.986,-12.6707 m 12.4452,9.8306 -7.9859,-12.6707 m -0.9325,18.3508 -7.986,-12.6707 m 25.8229,1.3104 -7.9859,-12.6706 m 3.5266,15.5107 -7.9858,-12.6707 m 16.9044,6.9906 -7.9859,-12.6707 m -18.7694,29.7109 -7.986,-12.6706 m -3.8239,-2.5517 30.1115,-18.9746 m -20.0762,35.8966 c -3.2192,1.8586 -14.5254,-19.2829 -11.2732,-33.9435 2.1601,-9.7383 -17.8804,-41.0404 -29.1987,-58.8114 -1.058,-1.6542 -0.1542,-2.9206 0.4595,-3.3114 0.2458,-0.1611 0.8052,-0.5128 1.0585,-0.6742 0.6138,-0.3908 2.1443,-0.675 3.1951,0.9839 11.3182,17.771 31.2094,49.1682 40.9476,51.3285 14.6606,3.2521 28.259,23.2603 25.9937,24.5682 -7.3437,4.0673 -22.431,14.8071 -31.1825,19.8599 z" /><path
           id="path6-5-1-9-2-12-6-7"
           style="fill:none;fill-opacity:1;stroke:#f9f9fc;stroke-width:2.59463;stroke-linecap:round;stroke-dasharray:none;stroke-opacity:1"
           d="m 1886.1682,1100.3984 c 5.2992,8.3713 27.3471,37.3099 33.7908,32.5038 m -40.8466,-49.7124 c 15.1142,9.7035 60.4863,11.2394 59.5363,31.3734 l -14.883,23.1815 c -17.7056,9.138 -40.5367,-35.3994 -52.0072,-42.7637 2.0664,-3.2185 6.2805,-10.1193 7.3539,-11.7912 z m 0,0 c -1.2041,1.8757 -5.3094,8.6069 -7.3538,11.7912 -2.3139,-1.4926 -7.8558,-5.1048 -9.5888,-6.2174 2.5758,-4.8993 5.4693,-9.6258 7.1776,-11.8105 3.2662,2.0969 5.9309,3.775 9.765,6.2367 z m -29.1605,4.9664 c -2.589,3.7869 -4.4011,7.3086 -4.4814,7.8424 -0.08,0.5338 2.1507,2.3976 2.7579,2.8983 0.607,0.5006 2.9862,-2.2533 4.0168,-3.2994 -0.7319,-1.3169 -2.3134,-7.3077 -2.2933,-7.4413 z m 24.9999,-25.2271 c -4.6464,-5.1924 -10.2801,9.752 -14.9813,11.5112 -3.799,0.494 -7.3956,7.8951 -10.0154,13.5474 0.9495,5.3068 6.7186,15.9703 10.2705,26.369 0.6521,1.6684 5.7915,1.8283 5.4712,-2.3447 -3.6324,-6.715 -7.7726,-15.3023 -4.7994,-20.4452 6.101,-14.5966 18.8817,-25.0995 14.0544,-28.6377 z" /><g
           id="g10-5-1-8-2-6-0-2"
           transform="matrix(0.79913317,1.5496954,-1.5496954,0.79913317,1764.0197,913.23212)"
           style="stroke:#f9f9fc;stroke-opacity:1"><path
             id="path8-4-4-2-1-9-5-3-8-9-1"
             style="fill:none;fill-opacity:1;stroke:#f9f9fc;stroke-width:1.2;stroke-linecap:round;stroke-dasharray:none;stroke-opacity:1"
             d="m 113.33463,24.805853 h 3.73225 m -3.73225,3.705332 h 3.73225 m -3.73225,3.705332 h 3.73225 m -3.73225,-11.115996 h 3.73225 m -24.133762,3.705332 h 3.73225 m -3.73225,3.705332 h 3.73225 m -3.73225,3.705332 h 3.73225 m -3.73225,-11.115996 h 3.73225 m 0.529166,-2.856344 H 112.80546 V 35.087753 H 97.194534 Z m 7.805726,24.647955 A 7.8121578,7.8039772 0 0 1 97.187701,35.087753 H 112.8123 a 7.8121578,7.8039772 0 0 1 -7.81204,7.804379 z m 0,-32.452335 a 7.8121578,7.8039772 0 0 0 -7.812559,7.80438 H 112.8123 a 7.8121578,7.8039772 0 0 0 -7.81204,-7.80438 z m -2.8181,31.927043 c 2.02879,0.752409 3.78126,0.641863 5.63568,0 0,4.623561 0,30.03405 0,30.03405 -1.79507,2.634699 -3.67362,2.634699 -5.63568,0 0,0 0,-24.314602 0,-30.03405 z" /><path
             id="path9-0-0-2-1-5-1-7-8-5-4"
             style="fill:#afa2b9;fill-opacity:1;stroke:#f9f9fc;stroke-linecap:round;stroke-opacity:1"
             d="m 111.33438,32.316517 a 0.69999999,0.69999999 0 0 1 -0.7,0.7 0.69999999,0.69999999 0 0 1 -0.7,-0.7 0.69999999,0.69999999 0 0 1 0.7,-0.7 0.69999999,0.69999999 0 0 1 0.7,0.7 z m -5.41375,0 a 0.69999999,0.69999999 0 0 1 -0.7,0.7 0.69999999,0.69999999 0 0 1 -0.7,-0.7 0.69999999,0.69999999 0 0 1 0.7,-0.7 0.69999999,0.69999999 0 0 1 0.7,0.7 z m -5.41375,0 a 0.69999999,0.69999999 0 0 1 -0.700003,0.7 0.69999999,0.69999999 0 0 1 -0.7,-0.7 0.69999999,0.69999999 0 0 1 0.7,-0.7 0.69999999,0.69999999 0 0 1 0.700003,0.7 z m 10.8275,-3.705332 a 0.69999999,0.69999999 0 0 1 -0.7,0.7 0.69999999,0.69999999 0 0 1 -0.7,-0.7 0.69999999,0.69999999 0 0 1 0.7,-0.7 0.69999999,0.69999999 0 0 1 0.7,0.7 z m -5.41375,0 a 0.69999999,0.69999999 0 0 1 -0.7,0.7 0.69999999,0.69999999 0 0 1 -0.7,-0.7 0.69999999,0.69999999 0 0 1 0.7,-0.7 0.69999999,0.69999999 0 0 1 0.7,0.7 z m 2.70687,1.81901 a 0.69999999,0.69999999 0 0 1 -0.7,0.7 0.69999999,0.69999999 0 0 1 -0.7,-0.7 0.69999999,0.69999999 0 0 1 0.7,-0.7 0.69999999,0.69999999 0 0 1 0.7,0.7 z m -5.41374,0 a 0.69999999,0.69999999 0 0 1 -0.7,0.7 0.69999999,0.69999999 0 0 1 -0.7,-0.7 0.69999999,0.69999999 0 0 1 0.7,-0.7 0.69999999,0.69999999 0 0 1 0.7,0.7 z m -2.70688,-1.81901 a 0.69999999,0.69999999 0 0 1 -0.700003,0.7 0.69999999,0.69999999 0 0 1 -0.7,-0.7 0.69999999,0.69999999 0 0 1 0.7,-0.7 0.69999999,0.69999999 0 0 1 0.700003,0.7 z m 10.8275,-3.705332 a 0.69999999,0.69999999 0 0 1 -0.7,0.7 0.69999999,0.69999999 0 0 1 -0.7,-0.7 0.69999999,0.69999999 0 0 1 0.7,-0.7 0.69999999,0.69999999 0 0 1 0.7,0.7 z m -5.41375,0 a 0.69999999,0.69999999 0 0 1 -0.7,0.7 0.69999999,0.69999999 0 0 1 -0.7,-0.7 0.69999999,0.69999999 0 0 1 0.7,-0.7 0.69999999,0.69999999 0 0 1 0.7,0.7 z m 2.70687,1.81901 a 0.69999999,0.69999999 0 0 1 -0.7,0.7 0.69999999,0.69999999 0 0 1 -0.7,-0.7 0.69999999,0.69999999 0 0 1 0.7,-0.7 0.69999999,0.69999999 0 0 1 0.7,0.7 z m -5.41374,0 a 0.69999999,0.69999999 0 0 1 -0.7,0.7 0.69999999,0.69999999 0 0 1 -0.7,-0.7 0.69999999,0.69999999 0 0 1 0.7,-0.7 0.69999999,0.69999999 0 0 1 0.7,0.7 z m -2.70688,-1.81901 a 0.69999999,0.69999999 0 0 1 -0.700003,0.7 0.69999999,0.69999999 0 0 1 -0.7,-0.7 0.69999999,0.69999999 0 0 1 0.7,-0.7 0.69999999,0.69999999 0 0 1 0.700003,0.7 z m 10.8275,-3.705332 a 0.69999999,0.69999999 0 0 1 -0.7,0.7 0.69999999,0.69999999 0 0 1 -0.7,-0.7 0.69999999,0.69999999 0 0 1 0.7,-0.7 0.69999999,0.69999999 0 0 1 0.7,0.7 z m -5.41375,0 a 0.69999999,0.69999999 0 0 1 -0.7,0.7 0.69999999,0.69999999 0 0 1 -0.7,-0.7 0.69999999,0.69999999 0 0 1 0.7,-0.7 0.69999999,0.69999999 0 0 1 0.7,0.7 z m 2.70687,1.81901 a 0.69999999,0.69999999 0 0 1 -0.7,0.7 0.69999999,0.69999999 0 0 1 -0.7,-0.7 0.69999999,0.69999999 0 0 1 0.7,-0.7 0.69999999,0.69999999 0 0 1 0.7,0.7 z m -5.41374,0 a 0.69999999,0.69999999 0 0 1 -0.7,0.7 0.69999999,0.69999999 0 0 1 -0.7,-0.7 0.69999999,0.69999999 0 0 1 0.7,-0.7 0.69999999,0.69999999 0 0 1 0.7,0.7 z m -2.70688,-1.81901 a 0.69999999,0.69999999 0 0 1 -0.700003,0.7 0.69999999,0.69999999 0 0 1 -0.7,-0.7 0.69999999,0.69999999 0 0 1 0.7,-0.7 0.69999999,0.69999999 0 0 1 0.700003,0.7 z" /></g><path
           id="rect11-3-6-4-4-2-8-9"
           style="fill:none;fill-opacity:1;stroke:#f9f9fc;stroke-width:1.98288;stroke-linecap:round;stroke-dasharray:none;stroke-opacity:1"
           d="m 1948.0072,1157.9879 c 3.1315,8.5247 4.5029,16.3007 4.5646,21.5303 -0.038,0.3152 -0.271,5.6448 -1.929,6.6142 -22.2134,12.9887 -100.978,23.1834 -118.2582,21.889 -1.9965,-0.6639 -3.3761,-3.2918 -0.91,-5.1839 9.1843,-1.5447 59.3497,-5.4372 57.63,-15.6637 l -3.1533,-18.75 c -0.2131,-1.2671 2.569,-1.7346 2.7818,-0.4679 l 3.0494,18.1313 c 1.1152,2.3783 2.6113,2.1498 2.89,-0.4859 l -3.0493,-18.1315 c -0.213,-1.2668 2.8612,-1.7843 3.0743,-0.517 l 3.2095,19.0843 c 1.1345,2.4933 2.6309,2.2658 2.89,-0.4861 l -3.2093,-19.0841 c -0.2131,-1.2673 2.8603,-1.7837 3.073,-0.5168 l 3.4171,20.3191 c 1.1597,2.6424 2.6578,2.4157 2.8913,-0.4862 l -3.417,-20.3193 c -0.2131,-1.2669 2.8601,-1.7836 3.0731,-0.5167 l 3.5062,20.8494 c 1.1704,2.7063 2.6685,2.4804 2.8912,-0.4862 l -3.5061,-20.8495 c -0.2132,-1.267 2.8603,-1.7838 3.0732,-0.5167 l 3.6643,21.7901 c 1.1894,2.8201 2.6865,2.5952 2.89,-0.4861 l -3.6644,-21.79 c -0.2131,-1.2671 2.8613,-1.7843 3.0745,-0.517 l 3.6645,21.79 c 1.1894,2.8201 2.6865,2.5952 2.8899,-0.4862 l -3.6643,-21.7898 c -0.2132,-1.2672 2.8611,-1.7843 3.0743,-0.5172 l 3.5062,20.8495 c 1.1704,2.7063 2.6673,2.4806 2.8901,-0.4861 l -3.5063,-20.8494 c -0.213,-1.2672 2.8612,-1.7843 3.0745,-0.5171 l 3.417,20.3192 c 1.1597,2.6425 2.6563,2.4161 2.89,-0.4859 l -3.4171,-20.3192 c -0.2131,-1.2671 2.8602,-1.7837 3.0732,-0.5168 l 3.2095,19.0841 c 1.1345,2.4933 2.6321,2.2657 2.8911,-0.4861 l -3.2093,-19.0842 c -0.2133,-1.2673 2.8602,-1.7836 3.0731,-0.5169 l 3.049,18.1313 c 1.1153,2.3785 2.6115,2.1498 2.8901,-0.486 l -3.0491,-18.1312 c -0.213,-1.2671 2.1228,-1.6601 2.7054,-0.4551 z" /><path
           id="path17-3-3-7-8-7-9-9"
           style="fill:none;fill-opacity:1;stroke:#f9f9fc;stroke-width:2.14883;stroke-linecap:round;stroke-dasharray:none;stroke-opacity:1"
           d="m 1823.3333,1165.3435 c 3.2041,-0.4758 6.2521,-0.5556 8.2428,2.0467 m -29.8245,-2.1094 c -9.7521,5.2462 -35.6125,5.0256 -72.6167,21.0369 -2.3843,1.2683 -1.0419,1.9962 0.2454,1.829 36.9275,-10.0117 70.5614,-19.2417 73.0686,-17.8312 -0.4028,-1.882 -0.1077,-2.8854 -0.6973,-5.0347 z m 3.8893,8.4055 a 10.029953,10.029953 0 0 1 0.8803,-14.1572 10.029953,10.029953 0 0 1 14.1572,0.8804 10.029953,10.029953 0 0 1 -0.8804,14.1571 10.029953,10.029953 0 0 1 -14.1571,-0.8803 z m -16.7423,-19.4781 a 10.029953,10.029953 0 0 0 13.9026,-2.8138 10.029953,10.029953 0 0 0 -2.8137,-13.9026 10.029953,10.029953 0 0 0 -13.9027,2.8138 10.029953,10.029953 0 0 0 2.8138,13.9026 z m 2.1827,2.1528 c -8.5096,7.0858 -17.967,31.1558 -46.644,59.4984 -2.0672,1.7378 -2.241,0.2206 -1.6049,-0.9111 23.0833,-30.5127 44.2111,-58.2627 43.8396,-61.1152 1.595,1.0768 2.6362,1.1778 4.4095,2.5276 z" /><path
           id="path21-3-6-1-3-9-0-0"
           style="fill:none;fill-opacity:1;stroke:#f9f9fc;stroke-width:2.05564;stroke-linecap:round;stroke-dasharray:none;stroke-opacity:1"
           d="m 1822.1814,998.54026 c 2.7293,-5.61424 14.2769,-10.27268 17.5698,-5.43345 3.2927,4.83915 -7.7662,12.21819 -5.5456,22.43079 2.2207,10.2128 8.944,9.7916 11.239,6.5416 m -30.0534,-23.33763 c 1.2649,-1.47016 4.3939,-2.67943 5.1699,-2.50565 1.3207,0.47549 2.7185,5.01088 2.2251,5.61268 -0.5129,0.982 -2.7895,1.4596 -4.8319,2.5392 -0.4292,-1.6501 -1.0857,-3.4141 -2.5631,-5.64623 z m -82.5009,19.68613 c 9.9233,-1.153 20.9736,1.7165 20.9736,1.7165 l 4.642,11.7085 c 0,0 -7.2404,8.5565 -15.7487,14.8813 -1.7622,0.7938 -12.4287,-28.0784 -9.8669,-28.3063 z m 20.9736,1.7165 c 16.2872,-21.40486 42.372,-28.64344 59.8836,-23.74123 3.427,4.60993 4.3397,6.94893 4.9964,12.60223 -11.3327,18.5097 -43.4222,24.9566 -60.238,22.8475 -1.7571,-4.4318 -3.3801,-8.5259 -4.642,-11.7085 z m 37.3115,8.0932 c 3.9008,-1.2288 9.0835,-3.8366 13.6746,-6.2761 3.0632,17.7998 5.1211,28.5653 7.1227,40.2752 0.3269,2.2667 -5.7284,5.3035 -9.7815,3.9064 -1.7674,-0.6003 -11.8676,-25.7433 -15.2036,-36.7089 z" /><path
           id="path11-5-1-3-5-1-5-3-7-0-3"
           style="fill:none;fill-opacity:1;stroke:#f9f9fc;stroke-width:1.80087;stroke-linecap:round;stroke-dasharray:none;stroke-opacity:1"
           d="m 1948.3847,1019.1582 -14.5791,3.4311 m 13.3436,-8.5715 -14.5791,3.431 m 17.0502,6.8498 -14.5793,3.4312 m 9.6371,-23.993 -14.5789,3.4312 m 15.8145,1.7093 -14.5791,3.4311 m 12.108,-13.71209 -14.579,3.43119 m 21.9919,27.4114 -14.579,3.4313 m -3.6566,2.7861 -8.1506,-34.6454 m 27.4164,30.6589 c 0.7107,3.6486 -22.9586,7.4647 -35.7645,-0.3785 -8.5065,-5.2097 -44.6245,3.5616 -65.1103,8.4853 -1.9082,0.4629 -2.8119,-0.8039 -2.982,-1.5114 -0.068,-0.2859 -0.2232,-0.9282 -0.2932,-1.2202 -0.17,-0.7075 0.059,-2.2472 1.9695,-2.7015 20.4859,-4.9236 56.6451,-13.5228 61.855,-22.029 7.8431,-12.80604 31.1861,-19.15839 31.6861,-16.59086 1.458,8.26716 6.7074,26.02706 8.6395,35.94616 z" /><path
           id="path6-5-1-9-2-12-6-8"
           style="fill:none;fill-opacity:1;stroke:#f9f9fc;stroke-width:2.59463;stroke-linecap:round;stroke-dasharray:none;stroke-opacity:1"
           d="m 2151.6627,1032.4199 c 8.0018,5.8421 35.416,29.7589 30.1935,35.8699 m -46.8969,-44.0503 c 8.6809,15.7237 7.2072,61.098 27.36,61.484 l 24.1166,-13.3144 c 10.2909,-17.0613 -32.6359,-42.793 -39.2241,-54.7262 -3.3482,1.8485 -10.5131,5.5962 -12.2525,6.5566 z m 0,0 c 1.9514,-1.0774 8.9398,-4.7276 12.2526,-6.5566 -1.336,-2.4076 -4.5732,-8.1766 -5.5685,-9.9796 -5.0592,2.2456 -9.967,4.8195 -12.2601,6.3793 1.8759,3.398 3.3738,6.168 5.5761,10.1568 z m 6.8876,-28.76769 c 3.9501,-2.3323 7.5841,-3.9072 8.122,-3.9519 0.538,-0.044 2.2499,2.3049 2.7093,2.9438 0.4592,0.639 -2.4463,2.8304 -3.5583,3.7895 -1.2656,-0.8176 -7.1385,-2.7925 -7.273,-2.7814 z m -26.828,23.27379 c -4.8732,-4.9803 10.4116,-9.6115 12.4784,-14.1858 0.7447,-3.758 8.3677,-6.85629 14.1813,-9.09589 5.2322,1.299 15.49,7.76199 25.6306,11.99509 1.6214,0.7612 1.4405,5.8999 -2.7022,5.3038 -6.4595,-4.0692 -14.7537,-8.7693 -20.0822,-6.1434 -14.9687,5.1206 -26.2954,17.1772 -29.5059,12.1262 z" /><g
           id="g10-5-1-8-2-6-0-3"
           transform="matrix(1.6841962,-0.45127902,0.45127902,1.6841962,1984.8399,1130.5346)"
           style="stroke:#f9f9fc;stroke-opacity:1"><path
             id="path8-4-4-2-1-9-5-3-8-9-5"
             style="fill:none;fill-opacity:1;stroke:#f9f9fc;stroke-width:1.2;stroke-linecap:round;stroke-dasharray:none;stroke-opacity:1"
             d="m 113.33463,24.805853 h 3.73225 m -3.73225,3.705332 h 3.73225 m -3.73225,3.705332 h 3.73225 m -3.73225,-11.115996 h 3.73225 m -24.133762,3.705332 h 3.73225 m -3.73225,3.705332 h 3.73225 m -3.73225,3.705332 h 3.73225 m -3.73225,-11.115996 h 3.73225 m 0.529166,-2.856344 H 112.80546 V 35.087753 H 97.194534 Z m 7.805726,24.647955 A 7.8121578,7.8039772 0 0 1 97.187701,35.087753 H 112.8123 a 7.8121578,7.8039772 0 0 1 -7.81204,7.804379 z m 0,-32.452335 a 7.8121578,7.8039772 0 0 0 -7.812559,7.80438 H 112.8123 a 7.8121578,7.8039772 0 0 0 -7.81204,-7.80438 z m -2.8181,31.927043 c 2.02879,0.752409 3.78126,0.641863 5.63568,0 0,4.623561 0,30.03405 0,30.03405 -1.79507,2.634699 -3.67362,2.634699 -5.63568,0 0,0 0,-24.314602 0,-30.03405 z" /><path
             id="path9-0-0-2-1-5-1-7-8-5-5"
             style="fill:#afa2b9;fill-opacity:1;stroke:#f9f9fc;stroke-linecap:round;stroke-opacity:1"
             d="m 111.33438,32.316517 a 0.69999999,0.69999999 0 0 1 -0.7,0.7 0.69999999,0.69999999 0 0 1 -0.7,-0.7 0.69999999,0.69999999 0 0 1 0.7,-0.7 0.69999999,0.69999999 0 0 1 0.7,0.7 z m -5.41375,0 a 0.69999999,0.69999999 0 0 1 -0.7,0.7 0.69999999,0.69999999 0 0 1 -0.7,-0.7 0.69999999,0.69999999 0 0 1 0.7,-0.7 0.69999999,0.69999999 0 0 1 0.7,0.7 z m -5.41375,0 a 0.69999999,0.69999999 0 0 1 -0.700003,0.7 0.69999999,0.69999999 0 0 1 -0.7,-0.7 0.69999999,0.69999999 0 0 1 0.7,-0.7 0.69999999,0.69999999 0 0 1 0.700003,0.7 z m 10.8275,-3.705332 a 0.69999999,0.69999999 0 0 1 -0.7,0.7 0.69999999,0.69999999 0 0 1 -0.7,-0.7 0.69999999,0.69999999 0 0 1 0.7,-0.7 0.69999999,0.69999999 0 0 1 0.7,0.7 z m -5.41375,0 a 0.69999999,0.69999999 0 0 1 -0.7,0.7 0.69999999,0.69999999 0 0 1 -0.7,-0.7 0.69999999,0.69999999 0 0 1 0.7,-0.7 0.69999999,0.69999999 0 0 1 0.7,0.7 z m 2.70687,1.81901 a 0.69999999,0.69999999 0 0 1 -0.7,0.7 0.69999999,0.69999999 0 0 1 -0.7,-0.7 0.69999999,0.69999999 0 0 1 0.7,-0.7 0.69999999,0.69999999 0 0 1 0.7,0.7 z m -5.41374,0 a 0.69999999,0.69999999 0 0 1 -0.7,0.7 0.69999999,0.69999999 0 0 1 -0.7,-0.7 0.69999999,0.69999999 0 0 1 0.7,-0.7 0.69999999,0.69999999 0 0 1 0.7,0.7 z m -2.70688,-1.81901 a 0.69999999,0.69999999 0 0 1 -0.700003,0.7 0.69999999,0.69999999 0 0 1 -0.7,-0.7 0.69999999,0.69999999 0 0 1 0.7,-0.7 0.69999999,0.69999999 0 0 1 0.700003,0.7 z m 10.8275,-3.705332 a 0.69999999,0.69999999 0 0 1 -0.7,0.7 0.69999999,0.69999999 0 0 1 -0.7,-0.7 0.69999999,0.69999999 0 0 1 0.7,-0.7 0.69999999,0.69999999 0 0 1 0.7,0.7 z m -5.41375,0 a 0.69999999,0.69999999 0 0 1 -0.7,0.7 0.69999999,0.69999999 0 0 1 -0.7,-0.7 0.69999999,0.69999999 0 0 1 0.7,-0.7 0.69999999,0.69999999 0 0 1 0.7,0.7 z m 2.70687,1.81901 a 0.69999999,0.69999999 0 0 1 -0.7,0.7 0.69999999,0.69999999 0 0 1 -0.7,-0.7 0.69999999,0.69999999 0 0 1 0.7,-0.7 0.69999999,0.69999999 0 0 1 0.7,0.7 z m -5.41374,0 a 0.69999999,0.69999999 0 0 1 -0.7,0.7 0.69999999,0.69999999 0 0 1 -0.7,-0.7 0.69999999,0.69999999 0 0 1 0.7,-0.7 0.69999999,0.69999999 0 0 1 0.7,0.7 z m -2.70688,-1.81901 a 0.69999999,0.69999999 0 0 1 -0.700003,0.7 0.69999999,0.69999999 0 0 1 -0.7,-0.7 0.69999999,0.69999999 0 0 1 0.7,-0.7 0.69999999,0.69999999 0 0 1 0.700003,0.7 z m 10.8275,-3.705332 a 0.69999999,0.69999999 0 0 1 -0.7,0.7 0.69999999,0.69999999 0 0 1 -0.7,-0.7 0.69999999,0.69999999 0 0 1 0.7,-0.7 0.69999999,0.69999999 0 0 1 0.7,0.7 z m -5.41375,0 a 0.69999999,0.69999999 0 0 1 -0.7,0.7 0.69999999,0.69999999 0 0 1 -0.7,-0.7 0.69999999,0.69999999 0 0 1 0.7,-0.7 0.69999999,0.69999999 0 0 1 0.7,0.7 z m 2.70687,1.81901 a 0.69999999,0.69999999 0 0 1 -0.7,0.7 0.69999999,0.69999999 0 0 1 -0.7,-0.7 0.69999999,0.69999999 0 0 1 0.7,-0.7 0.69999999,0.69999999 0 0 1 0.7,0.7 z m -5.41374,0 a 0.69999999,0.69999999 0 0 1 -0.7,0.7 0.69999999,0.69999999 0 0 1 -0.7,-0.7 0.69999999,0.69999999 0 0 1 0.7,-0.7 0.69999999,0.69999999 0 0 1 0.7,0.7 z m -2.70688,-1.81901 a 0.69999999,0.69999999 0 0 1 -0.700003,0.7 0.69999999,0.69999999 0 0 1 -0.7,-0.7 0.69999999,0.69999999 0 0 1 0.7,-0.7 0.69999999,0.69999999 0 0 1 0.700003,0.7 z" /></g><path
           id="rect11-3-6-4-4-2-8-1"
           style="fill:none;fill-opacity:1;stroke:#f9f9fc;stroke-width:1.98288;stroke-linecap:round;stroke-dasharray:none;stroke-opacity:1"
           d="m 1979.5758,1016.13 c 1.9669,-8.8662 5.0111,-16.15158 7.7827,-20.58678 0.2024,-0.2448 3.276,-4.6049 5.1949,-4.5257 25.7103,1.0611 97.5116,35.00758 111.3576,45.42728 1.3219,1.6367 1.0643,4.5935 -2.0331,4.8547 -8.5645,-3.6588 -52.8908,-27.4684 -56.9649,-17.932 l -7.4696,17.4845 c -0.5048,1.1816 -3.099,0.073 -2.5942,-1.1082 l 7.2232,-16.9077 c 0.3454,-2.6039 -1.0376,-3.2193 -2.6949,-1.1513 l -7.2232,16.9077 c -0.5047,1.1814 -3.3717,-0.043 -2.8669,-1.2248 l 7.6028,-17.7962 c 0.3912,-2.7112 -0.9915,-3.3275 -2.695,-1.1513 l -7.6028,17.7961 c -0.5048,1.1817 -3.3705,-0.043 -2.8657,-1.2242 l 8.0948,-18.9478 c 0.4506,-2.8503 -0.9327,-3.4684 -2.6962,-1.1518 l -8.0947,18.9478 c -0.5048,1.1815 -3.3706,-0.043 -2.8658,-1.2244 l 8.306,-19.4422 c 0.4761,-2.91 -0.9069,-3.5286 -2.6961,-1.1518 l -8.306,19.4422 c -0.5048,1.1816 -3.3706,-0.043 -2.8658,-1.2243 l 8.6808,-20.3194 c 0.5214,-3.0159 -0.86,-3.6349 -2.6949,-1.1513 l -8.6808,20.3194 c -0.5048,1.1816 -3.3718,-0.043 -2.867,-1.2248 l 8.6807,-20.3194 c 0.5215,-3.016 -0.8599,-3.635 -2.6949,-1.1513 l -8.6807,20.3194 c -0.5048,1.1816 -3.3717,-0.043 -2.867,-1.2248 l 8.3061,-19.4422 c 0.4761,-2.91 -0.9057,-3.5281 -2.695,-1.1513 l -8.306,19.4422 c -0.5048,1.1816 -3.3717,-0.043 -2.867,-1.2248 l 8.0948,-18.9477 c 0.4506,-2.8504 -0.9314,-3.4679 -2.6949,-1.1514 l -8.0948,18.9478 c -0.5048,1.1816 -3.3705,-0.043 -2.8657,-1.2243 l 7.6027,-17.7962 c 0.3913,-2.7112 -0.9925,-3.32798 -2.6961,-1.1518 l -7.6028,17.7961 c -0.5048,1.1817 -3.3705,-0.043 -2.8657,-1.2242 l 7.2232,-16.9076 c 0.3455,-2.60408 -1.0375,-3.21938 -2.6949,-1.1513 l -7.2232,16.9076 c -0.5048,1.1816 -2.6831,0.251 -2.5229,-1.0778 z" /><path
           id="path17-3-3-7-8-7-9-5"
           style="fill:none;fill-opacity:1;stroke:#f9f9fc;stroke-width:2.14883;stroke-linecap:round;stroke-dasharray:none;stroke-opacity:1"
           d="m 2118.6742,1169.7963 c 0.8058,3.1375 1.916,5.9773 5.0872,6.8012 m -13.5258,-26.6647 c 1.0472,-11.024 -9.1986,-34.7691 -8.8139,-75.087 0.2429,-2.6898 1.435,-1.7353 1.7808,-0.4841 5.1144,37.9172 9.67,72.4958 11.9434,74.2585 -1.8907,0.3597 -2.7008,1.0212 -4.9103,1.3126 z m 9.2561,0.3198 a 10.029953,10.029953 0 0 0 -12.7042,6.3091 10.029953,10.029953 0 0 0 6.309,12.7041 10.029953,10.029953 0 0 0 12.7041,-6.309 10.029953,10.029953 0 0 0 -6.3089,-12.7042 z m -24.451,-7.8642 a 10.029953,10.029953 0 0 1 2.8059,13.9042 10.029953,10.029953 0 0 1 -13.9042,2.8059 10.029953,10.029953 0 0 1 -2.8059,-13.9042 10.029953,10.029953 0 0 1 13.9042,-2.8059 z m 2.8315,1.1755 c 3.2251,-10.5935 21.7335,-28.6558 36.7152,-66.0888 0.7991,-2.5796 -0.667,-2.1507 -1.4627,-1.1252 -19.1541,33.1208 -36.5214,63.3667 -39.2944,64.1322 1.6116,1.0517 2.1092,1.9719 4.0419,3.0818 z" /><path
           id="path21-3-6-1-3-9-0-5"
           style="fill:none;fill-opacity:1;stroke:#f9f9fc;stroke-width:2.05564;stroke-linecap:round;stroke-dasharray:none;stroke-opacity:1"
           d="m 2064.8911,1179.2424 c 6.0958,-1.3456 16.9166,4.8155 15.1669,10.4012 -1.7497,5.5856 -14.3999,1.4965 -21.0279,9.5773 -6.628,8.0809 -2.1241,13.0904 1.8486,12.872 m -0.3606,-38.0489 c 1.9378,0.079 4.8282,1.7813 5.1738,2.4976 0.447,1.3305 -2.2408,5.2419 -3.0189,5.2288 -1.0883,0.2074 -2.8761,-1.281 -4.9903,-2.2119 1.0272,-1.3608 2.0026,-2.9706 2.8354,-5.5145 z m -66.6493,-52.4578 c 7.0641,7.0639 11.6745,17.5083 11.6745,17.5083 l -6.2975,10.9078 c 0,0 -11.2028,-0.3645 -21.4432,-3.1084 -1.7163,-0.8888 14.2972,-27.1746 16.0662,-25.3077 z m 11.6745,17.5083 c 26.8919,-0.5191 48.7599,15.4371 55.7878,32.2091 -1.4866,5.5484 -2.7538,7.716 -6.7782,11.7404 -21.5465,2.6061 -46.5215,-18.5491 -55.3071,-33.0417 2.3837,-4.1288 4.5857,-7.9427 6.2975,-10.9078 z m 16.8178,34.2756 c 3.3848,2.2953 8.6466,4.7396 13.4092,6.8245 -12.0529,13.4514 -19.2153,21.7479 -27.153,30.5864 -1.5744,1.6632 -7.7139,-1.1985 -9.1348,-5.2434 -0.6265,-1.7583 12.8147,-25.2851 19.3407,-34.7078 z" /><path
           id="path11-5-1-3-5-1-5-3-7-0-8"
           style="fill:none;fill-opacity:1;stroke:#f9f9fc;stroke-width:1.80087;stroke-linecap:round;stroke-dasharray:none;stroke-opacity:1"
           d="m 2060.5174,1118.7106 -11.2512,-9.886 m 14.722,5.8979 -11.2512,-9.886 m 4.3096,17.862 -11.2513,-9.886 m 25.1345,-6.066 -11.2511,-9.8859 m 7.7803,13.8739 -11.2511,-9.886 m 18.1928,1.91 -11.2511,-9.886 m -9.5737,33.8138 -11.2513,-9.8859 m -4.3905,-1.3626 23.4948,-26.7345 m -9.0728,40.1162 c -2.56,2.6951 -19.3973,-14.3724 -20.4359,-29.3534 -0.6901,-9.9511 -28.7844,-34.2853 -44.6774,-48.1173 -1.4837,-1.2863 -0.9761,-2.757 -0.4984,-3.3058 0.19,-0.2242 0.6267,-0.7201 0.8238,-0.9467 0.4778,-0.5488 1.8649,-1.2554 3.343,0.037 15.893,13.832 43.871,38.2998 53.8221,37.6099 14.981,-1.0388 33.695,14.292 31.8935,16.1886 -5.8888,5.9828 -17.3113,20.5601 -24.2707,27.8872 z" /></g></g></g></svg>
